<?xml version="1.0" encoding="utf-8"?>
<!-- Svg Vector Icons : http://www.onlinewebfonts.com/icon -->
<!DOCTYPE svg PUBLIC "-//W3C//DTD SVG 1.1//EN" "http://www.w3.org/Graphics/SVG/1.1/DTD/svg11.dtd">
<svg version="1.1" xmlns="http://www.w3.org/2000/svg" xmlns:xlink="http://www.w3.org/1999/xlink" x="0px" y="0px" viewBox="0 0 1000 1000" enable-background="new 0 0 1000 1000" xml:space="preserve">
<metadata> Svg Vector Icons : http://www.onlinewebfonts.com/icon </metadata>
<g><path d="M977.5,450.5L528.1,19.5c-15.7-15.1-40.5-15.1-56.2,0L22.5,450.5c-12,11.5-15.8,29.1-9.6,44.5c6.2,15.4,21.1,25.5,37.7,25.5h49.3v430.7c0,22.4,18.2,40.6,40.6,40.6h719c22.4,0,40.6-18.2,40.6-40.6V520.4h49.3c16.6,0,31.5-10.1,37.7-25.5C993.3,479.6,989.5,461.9,977.5,450.5z M609.3,698.3c-56.7,42-94.6,56.8-109.3,61.4c-14.7-4.6-52.6-19.4-109.3-61.4c-69.4-51.5-70.6-102.3-66.2-146c3.2-32,26.5-66.5,70-66.5c44.5,0,72.3,34.4,73.2,35.5c7.7,10.1,19.5,16.2,32.2,16.2c12.7,0,24.5-5.8,32.2-15.9c1.2-1.5,29-35.8,73.5-35.8c43.5,0,66.8,34.5,70,66.5C679.9,596,678.8,646.9,609.3,698.3z"/><g></g><g></g><g></g><g></g><g></g><g></g><g></g><g></g><g></g><g></g><g></g><g></g><g></g><g></g><g></g></g>
</svg>